# xmcd CD database file
# Copyright (C) 1993-1998 Ti Kan
#
# Track frame offsets:
#  150
#  14522
#  32412
#  50785
#  67800
#  80482
#  95307
#  108787
#  124470
#  139340
#  154645
#  166984
#
# Disc length: 2447 seconds
#
# Revision: 1
# Processed by: cddbd v1.4b41PL1 Copyright (c) Steve Scherf et al.
# Submitted via: CDWizzard Release:4.35
#
DISCID=97098d0c
DTITLE=Bryan Smith - Bryan Smith
DYEAR=1900
DGENRE=
TTITLE0=Range Of Emotion
TTITLE1=Jack Of All Trades
TTITLE2=Texas Twist Her
TTITLE3=Benefit Of The Doubt
TTITLE4=Eyes In The Back Of Her Heart
TTITLE5=If Your Love Should Die
TTITLE6=Come As You Are
TTITLE7=Lost In You
TTITLE8=Look Away
TTITLE9=He Drives On
TTITLE10=If You Build It Love Will Come
TTITLE11=Drivin'  I-20-20
EXTD=
EXTT0=
EXTT1=
EXTT2=
EXTT3=
EXTT4=
EXTT5=
EXTT6=
EXTT7=
EXTT8=
EXTT9=
EXTT10=
EXTT11=
PLAYORDER=
